<?xml version="1.0" encoding="utf-8"?>
<!-- Generator: Adobe Illustrator 16.0.0, SVG Export Plug-In . SVG Version: 6.00 Build 0)  -->
<!DOCTYPE svg PUBLIC "-//W3C//DTD SVG 1.1//EN" "http://www.w3.org/Graphics/SVG/1.1/DTD/svg11.dtd">
<svg version="1.1" id="Layer_1" xmlns="http://www.w3.org/2000/svg" xmlns:xlink="http://www.w3.org/1999/xlink" x="0px" y="0px"
	 width="3400px" height="1600px" viewBox="0 0 3400 1600" enable-background="new 0 0 3400 1600" xml:space="preserve">
<g>
	<path fill="#B5E51D" d="M1893.596,692.922c0,0,105.253,40.481,123.47,40.481l205.445-44.53c0,0,223.661-40.481,223.661,220.625
		c0,0-28.337,414.938-194.312,514.117c0,0-93.108,52.627-139.662-85.012c0,0-62.747-194.312-174.071-236.817
		c0,0-218.602-60.723-263.131-101.204c0,0-155.854-87.035-2.024-259.083C1672.971,741.5,1757.982,640.295,1893.596,692.922z"/>
	<path fill="#39DB61" d="M2008.467,1166.345c-21.25-24.667-45.756-45.238-73.22-55.832
		c-13.695-3.813-219.065-61.528-265.662-102.454c-7.455-4.396-53.775-33.633-68.892-88.663c-3.531,17.35-4.638,28.562-4.638,28.562
		c-4.048,240.865,159.903,536.382,159.903,536.382c56.675,131.565,121.445,119.42,121.445,119.42
		c56.676-6.07,50.603-204.432,50.603-204.432C1928.006,1299.957,1988.23,1197.852,2008.467,1166.345z"/>
	<path fill="none" stroke="#E51717" stroke-miterlimit="10" d="M2035.281,773.885"/>
	<path fill="none" stroke="#E51717" stroke-miterlimit="10" d="M2393.545,753.644"/>
	<path fill="#22B04C" d="M2312.582,982.366c197.348-113.35,106.264-226.698,51.615-265.155
		c-63.25-44.509-126.879-15.776-164.963-2.024c-29.556,10.672-131.41,56.133-178.122,54.65
		c-15.406-0.488-175.821-40.274-236.817-42.506c-115.111-4.212-179.131,72.867-178.461,169.966
		c7.238,68.68,69.161,103.285,69.161,103.285c44.53,40.481,263.131,101.204,263.131,101.204
		c28.453,10.864,53.726,31.656,75.595,56.574c0.829-1.22,1.32-1.924,1.32-1.924C2039.33,1132.148,2312.582,982.366,2312.582,982.366
		z"/>
</g>
</svg>
