<?xml version="1.0" encoding="utf-8"?>
<!-- Generator: Adobe Illustrator 16.0.4, SVG Export Plug-In . SVG Version: 6.00 Build 0)  -->
<!DOCTYPE svg PUBLIC "-//W3C//DTD SVG 1.1//EN" "http://www.w3.org/Graphics/SVG/1.1/DTD/svg11.dtd">
<svg version="1.1" id="Layer_1" xmlns="http://www.w3.org/2000/svg" xmlns:xlink="http://www.w3.org/1999/xlink" x="0px" y="0px"
	 width="850.19px" height="926.3px" viewBox="0 0 850.19 926.3" enable-background="new 0 0 850.19 926.3" xml:space="preserve">
<g>
	<path fill="#B6D433" d="M297.614,15.169c0,0,105.254,40.481,123.471,40.481l205.444-44.53c0,0,223.661-40.481,223.661,220.625
		c0,0-28.337,414.937-194.312,514.116c0,0-93.107,52.627-139.662-85.012c0,0-62.746-194.312-174.07-236.816
		c0,0-218.603-60.725-263.131-101.205c0,0-155.854-87.035-2.024-259.083C76.989,63.747,162.001-37.458,297.614,15.169z"/>
	<path fill="#60BC5D" d="M412.485,488.592c-21.25-24.667-45.756-45.238-73.22-55.832c-13.694-3.812-219.065-61.527-265.662-102.455
		c-7.455-4.395-53.774-33.633-68.892-88.663c-3.531,17.351-4.639,28.562-4.639,28.562
		C-3.975,511.07,159.977,806.586,159.977,806.586c56.675,131.566,121.445,119.42,121.445,119.42
		c56.676-6.068,50.603-204.432,50.603-204.432C332.024,622.203,392.249,520.098,412.485,488.592z"/>
	<path fill="none" stroke="#E31E26" stroke-miterlimit="10" d="M439.3,96.132"/>
	<path fill="none" stroke="#E31E26" stroke-miterlimit="10" d="M797.563,75.891"/>
	<path fill="#28B04C" d="M716.601,304.614C913.948,191.263,822.864,77.915,768.216,39.458
		c-63.25-44.509-126.879-15.775-164.963-2.023c-29.557,10.672-131.41,56.133-178.122,54.649
		c-15.406-0.487-175.821-40.273-236.817-42.506C73.203,45.366,9.183,122.445,9.853,219.544
		c7.238,68.681,69.161,103.285,69.161,103.285c44.53,40.482,263.131,101.205,263.131,101.205
		c28.453,10.863,53.726,31.656,75.595,56.574c0.83-1.221,1.32-1.924,1.32-1.924C443.349,454.395,716.601,304.614,716.601,304.614z"
		/>
</g>
</svg>
