<?xml version="1.0" encoding="utf-8"?>
<!-- Generator: Adobe Illustrator 16.0.0, SVG Export Plug-In . SVG Version: 6.00 Build 0)  -->
<!DOCTYPE svg PUBLIC "-//W3C//DTD SVG 1.1//EN" "http://www.w3.org/Graphics/SVG/1.1/DTD/svg11.dtd">
<svg version="1.1" id="Layer_1" xmlns="http://www.w3.org/2000/svg" xmlns:xlink="http://www.w3.org/1999/xlink" x="0px" y="0px"
	 width="1599px" height="1000px" viewBox="0 0 1599 1000" enable-background="new 0 0 1599 1000" xml:space="preserve">
<path fill="#2BB673" d="M142.501,516.361V561H1365.5v-60.538l-332.043-15.899l-15.287,15.899l-1.428-12.638
	C1016.742,487.824,345.424,492.459,142.501,516.361z"/>
<path fill="#00AEEF" d="M142,517c0,0,867.449-48.715,874.803-29.413c7.353,19.302,0-4.523,0-4.523
	C142,438.507,142,438.507,142,438.507V517z"/>
<polygon fill="#FFFFFF" points="1017.732,482.063 1018.17,500.462 1033.457,484.562 "/>
<path fill="#00AEEF" d="M541,496l475.742-8.176L1017,485C1017,485,643,458,541,496z"/>
<path fill="#00AEEF" d="M1017,501v-18V501z"/>
<rect x="142" y="438" fill="#FFFFFF" width="1" height="79"/>
<rect x="142" y="517" fill="#FFFFFF" width="1" height="44"/>
<path fill="#FFFFFF" d="M138,533"/>
<polygon fill="#FFFFFF" points="1016.803,483.063 1017,502 1018,502 1018,483 "/>
</svg>
